<?xml version="1.0" encoding="utf-8"?>
<!-- Generator: Adobe Illustrator 23.1.1, SVG Export Plug-In . SVG Version: 6.00 Build 0)  -->
<svg version="1.1" xmlns="http://www.w3.org/2000/svg" xmlns:xlink="http://www.w3.org/1999/xlink" x="0px" y="0px"
	 viewBox="0 0 1825.7 1465.1" style="enable-background:new 0 0 1825.7 1465.1;" xml:space="preserve">
<style type="text/css">
	.st0{fill:#F9F9F9;stroke:#265698;stroke-width:5;stroke-miterlimit:10;}
	.st1{fill:#265698;stroke:#265698;stroke-width:3;stroke-miterlimit:10;enable-background:new    ;}
	.st2{fill:#FFFFFF;stroke:#265698;stroke-width:3;stroke-miterlimit:10;enable-background:new    ;}
	.st3{opacity:0.5;fill:#FFFFFF;stroke:#265698;stroke-width:3;stroke-miterlimit:10;enable-background:new    ;}
	.st4{font-family:'Montserrat-SemiBold';}
	.st5{font-size:72px;}
	.st6{fill:#265698;stroke:#265698;stroke-width:8;stroke-miterlimit:10;enable-background:new    ;}
	.st7{fill:#FFFFFF;stroke:#265698;stroke-width:6;stroke-miterlimit:10;enable-background:new    ;}
	.st8{fill:#265698;stroke:#FCFCFC;stroke-width:2;stroke-miterlimit:10;enable-background:new    ;}
	.st9{fill:#FFFFFF;stroke:#265698;stroke-width:2;stroke-miterlimit:10;enable-background:new    ;}
	.st10{opacity:0.35;fill:#F9F9F9;stroke:#265698;stroke-width:5;stroke-miterlimit:10;}
	.st11{fill:#265698;stroke:#265698;stroke-width:2;stroke-miterlimit:10;enable-background:new    ;}
	.st12{fill:#FFFFFF;stroke:#265698;stroke-width:2;stroke-miterlimit:10;}
	.st13{fill:none;stroke:#265698;stroke-width:2;stroke-miterlimit:10;}
	.st14{fill:#265698;}
	.st15{fill:#FFFFFF;}
</style>
<g id="Layer_1">
	<rect x="491.2" y="930.7" class="st0" width="396" height="302.9"/>
	<title>MOYO_logo_vector</title>
	<path class="st1" d="M711,362.3c-63.1,0-114.2-49.1-114.2-109.6s51.1-109.6,114.2-109.6c63.1,0,114.2,49.1,114.2,109.6c0,0,0,0,0,0
		C825.2,313.2,774,362.3,711,362.3C711,362.3,710.9,362.3,711,362.3L711,362.3z"/>
	<path class="st2" d="M604.1,268.1c-63.1,0-114.2-49.1-114.2-109.6C489.8,98,541,48.9,604.1,48.9c63.1,0,114.2,49.1,114.2,109.6
		c0,0,0,0,0,0C718.3,219,667.2,268.1,604.1,268.1C604.1,268.1,604.1,268.1,604.1,268.1L604.1,268.1z"/>
	<title>MOYO_logo_vector</title>
	<path class="st1" d="M179.9,263.2c-63.1,0-114.2-49.1-114.2-109.6S116.8,44,179.9,44s114.2,49.1,114.2,109.6c0,0,0,0,0,0
		C294.1,214.1,243,263.2,179.9,263.2C179.9,263.2,179.9,263.2,179.9,263.2L179.9,263.2z"/>
	<path class="st3" d="M286.8,357.5c-63.1,0-114.2-49.1-114.2-109.6c0-60.5,51.1-109.6,114.2-109.6S401,187.3,401,247.8c0,0,0,0,0,0
		C401,308.4,349.9,357.5,286.8,357.5C286.8,357.5,286.8,357.5,286.8,357.5L286.8,357.5z"/>
	<text transform="matrix(1 0 0 1 140.2625 433.9975)" class="st4 st5">moyo</text>
	<text transform="matrix(1 0 0 1 596.7184 429.1439)" class="st4 st5">moyo</text>
	<text transform="matrix(1 0 0 1 1477.7776 428.9125)" class="st4 st5">moyo</text>
	<path class="st6" d="M229.2,727.9c-63.1,0-114.2-49.1-114.2-109.6c0-60.5,51.1-109.6,114.2-109.6c63.1,0,114.2,49.1,114.2,109.6
		c0,0,0,0,0,0C343.4,678.8,292.3,727.9,229.2,727.9C229.2,727.9,229.2,727.9,229.2,727.9L229.2,727.9z"/>
	<path class="st7" d="M229.2,728.7c-53.4,0-96.7-41.5-96.7-92.7c0-51.2,43.3-92.7,96.6-92.8s96.7,41.5,96.7,92.7c0,0,0,0,0,0
		C325.8,687.2,282.6,728.7,229.2,728.7C229.2,728.7,229.2,728.7,229.2,728.7L229.2,728.7z"/>
	<text transform="matrix(1 0 0 1 140.2625 813.6318)" class="st4 st5">moyo</text>
	<path class="st8" d="M1591.4,366c-63.1,0-114.2-49.1-114.2-109.6c0-60.5,51.1-109.6,114.2-109.6c63.1,0,114.2,49.1,114.2,109.6
		c0,0,0,0,0,0C1705.6,316.9,1654.5,366,1591.4,366C1591.4,366,1591.4,366,1591.4,366L1591.4,366z"/>
	<path class="st9" d="M1499.9,271.5c-46.4,0-84.1-38.4-84.1-85.8s37.6-85.8,84.1-85.8s84.1,38.4,84.1,85.8c0,0,0,0,0,0
		C1584,233.1,1546.3,271.5,1499.9,271.5C1499.9,271.5,1499.8,271.5,1499.9,271.5L1499.9,271.5z"/>
	<line class="st10" x1="697.9" y1="929.1" x2="697.9" y2="1232"/>
	<path class="st11" d="M705.4,1218.6c-63.1,0-114.2-49.1-114.2-109.6s51.1-109.6,114.2-109.6c63.1,0,114.2,49.1,114.2,109.6
		c0,0,0,0,0,0C819.6,1169.5,768.4,1218.6,705.4,1218.6C705.3,1218.6,705.3,1218.6,705.4,1218.6L705.4,1218.6z"/>
	<line class="st10" x1="491.7" y1="1096.1" x2="887.7" y2="1096.1"/>
	<path class="st9" d="M613.8,1124.1c-6.6-0.8-13.2-1.6-19.8-2.4c-38.2-11.8-64.3-46.1-64.3-83.4c0-46.3,40.1-85.4,84.1-85.8
		c32.7-0.3,62,21,75.4,47.6c7.5,15,8.8,29.3,8.8,38.1l0,0C697.9,1085.7,660.3,1124.1,613.8,1124.1
		C613.8,1124.1,613.8,1124.1,613.8,1124.1L613.8,1124.1z"/>
	<text transform="matrix(1 0 0 1 577.3177 1298.8616)" class="st4 st5">moyo</text>
	<rect x="1385.5" y="933.7" class="st0" width="396" height="302.9"/>
	<text transform="matrix(1 0 0 1 1471.0984 1303.45)" class="st4 st5">moyo</text>
	<rect x="38.8" y="929.1" class="st0" width="396" height="302.9"/>
	<line class="st10" x1="245.1" y1="929.1" x2="245.1" y2="1232"/>
	<path class="st8" d="M252.4,1210.8c-63.1,0-114.2-49.1-114.2-109.6c0-60.5,51.1-109.6,114.2-109.6c63.1,0,114.2,49.1,114.2,109.6
		c0,0,0,0,0,0C366.6,1161.7,315.5,1210.8,252.4,1210.8C252.4,1210.8,252.4,1210.8,252.4,1210.8L252.4,1210.8z"/>
	<line class="st10" x1="38.8" y1="1088.3" x2="434.7" y2="1088.3"/>
	<path class="st9" d="M160.9,1116.3c-46.4,0-84.1-38.4-84.1-85.8c0-47.4,37.6-85.8,84.1-85.8c46.4,0,84.1,38.4,84.1,85.8
		c0,0,0,0,0,0C245,1077.9,207.3,1116.3,160.9,1116.3C160.9,1116.3,160.9,1116.3,160.9,1116.3L160.9,1116.3z"/>
	<text transform="matrix(1 0 0 1 124.3678 1298.8621)" class="st4 st5">moyo</text>
	<path class="st12" d="M615.1,1039.8"/>
	<path class="st13" d="M594,1121.7c-13.1-60.8,41.5-120,95.2-121.5"/>
	<path class="st8" d="M1614.2,1219.8c-63.1,0-114.2-49.1-114.2-109.6c0-60.5,51.1-109.6,114.2-109.6c63.1,0,114.2,49.1,114.2,109.6
		c0,0,0,0,0,0C1728.4,1170.7,1677.3,1219.8,1614.2,1219.8C1614.2,1219.8,1614.2,1219.8,1614.2,1219.8L1614.2,1219.8z"/>
	<path class="st9" d="M1522.7,1125.3c-46.4,0-84.1-38.4-84.1-85.8c0-47.4,37.6-85.8,84.1-85.8c46.4,0,84.1,38.4,84.1,85.8
		c0,0,0,0,0,0C1606.8,1086.9,1569.1,1125.3,1522.7,1125.3C1522.7,1125.3,1522.7,1125.3,1522.7,1125.3L1522.7,1125.3z"/>
	<path class="st14" d="M217.5,708.8L217.5,708.8c0,3.6,2.9,6.5,6.5,6.5h10.3c3.6,0,6.5-2.9,6.5-6.5l0,0c0-3.6-2.9-6.5-6.5-6.5H224
		C220.4,702.3,217.5,705.2,217.5,708.8z"/>
	<path class="st15" d="M1602.6,1190.8L1602.6,1190.8c0,3.5,2.9,6.3,6.5,6.3h10.3c3.6,0,6.5-2.8,6.5-6.3l0,0c0-3.5-2.9-6.3-6.5-6.3
		h-10.3C1605.5,1184.5,1602.6,1187.3,1602.6,1190.8z"/>
	<path class="st14" d="M1511.1,1099.2L1511.1,1099.2c0,3.6,2.9,6.5,6.5,6.5h10.3c3.6,0,6.5-2.9,6.5-6.5l0,0c0-3.6-2.9-6.5-6.5-6.5
		h-10.3C1514,1092.7,1511.1,1095.6,1511.1,1099.2z"/>
	<path class="st6" d="M681.3,743C618.2,743,567,693.9,567,633.4c0-60.5,51.1-109.6,114.2-109.6c63.1,0,114.2,49.1,114.2,109.6
		c0,0,0,0,0,0C795.5,693.9,744.3,743,681.3,743C681.2,743,681.2,743,681.3,743L681.3,743z"/>
	<path class="st7" d="M618.1,716.3c-53.4,0-96.7-41.5-96.7-92.7c0-51.2,43.3-92.7,96.6-92.8c53.4,0,96.7,41.5,96.7,92.7c0,0,0,0,0,0
		C714.8,674.7,671.5,716.3,618.1,716.3C618.1,716.3,618.1,716.3,618.1,716.3L618.1,716.3z"/>
	<text transform="matrix(1 0 0 1 589.0011 828.1232)" class="st4 st5">moyo</text>
	<path class="st15" d="M240.8,528.7L240.8,528.7c0-3.6-2.9-6.5-6.5-6.5H224c-3.6,0-6.5,2.9-6.5,6.5v0c0,3.6,2.9,6.5,6.5,6.5h10.3
		C237.9,535.2,240.8,532.2,240.8,528.7z"/>
	<path class="st15" d="M733.9,650.7L733.9,650.7c3.5,0,6.3-2.9,6.3-6.5v-10.3c0-3.6-2.8-6.5-6.3-6.5h0c-3.5,0-6.3,2.9-6.3,6.5v10.3
		C727.6,647.8,730.4,650.7,733.9,650.7z"/>
	<path class="st8" d="M1166.8,757.5c-63.1,0-114.2-49.1-114.2-109.6c0-60.5,51.1-109.6,114.2-109.6c63.1,0,114.2,49.1,114.2,109.6
		c0,0,0,0,0,0C1281,708.4,1229.8,757.5,1166.8,757.5C1166.7,757.5,1166.7,757.5,1166.8,757.5L1166.8,757.5z"/>
	<path class="st9" d="M1075.2,663c-46.4,0-84.1-38.4-84.1-85.8c0-47.4,37.6-85.8,84.1-85.8s84.1,38.4,84.1,85.8c0,0,0,0,0,0
		C1159.3,624.6,1121.7,663,1075.2,663C1075.2,663,1075.2,663,1075.2,663L1075.2,663z"/>
	<text transform="matrix(1 0 0 1 1052.5093 825.6569)" class="st4 st5">moyo</text>
	<path class="st15" d="M1166.7,740.1L1166.7,740.1c3.5,0,6.3-2.9,6.3-6.5v-10.3c0-3.6-2.8-6.5-6.3-6.5l0,0c-3.5,0-6.3,2.9-6.3,6.5
		v10.3C1160.4,737.2,1163.3,740.1,1166.7,740.1z"/>
	<path class="st14" d="M1075.2,648.5L1075.2,648.5c3.6,0,6.5-2.9,6.5-6.5v-10.3c0-3.6-2.9-6.5-6.5-6.5l0,0c-3.6,0-6.5,2.9-6.5,6.5
		V642C1068.7,645.6,1071.6,648.5,1075.2,648.5z"/>
	<rect x="931.3" y="931.4" class="st0" width="396" height="302.9"/>
	<path class="st8" d="M1144.9,1213.1c-63.1,0-114.2-49.1-114.2-109.6c0-60.5,51.1-109.6,114.2-109.6c63.1,0,114.2,49.1,114.2,109.6
		c0,0,0,0,0,0C1259.2,1164,1208,1213.1,1144.9,1213.1C1144.9,1213.1,1144.9,1213.1,1144.9,1213.1L1144.9,1213.1z"/>
	<path class="st9" d="M1053.4,1118.6c-46.4,0-84.1-38.4-84.1-85.8c0-47.4,37.6-85.8,84.1-85.8c46.4,0,84.1,38.4,84.1,85.8
		c0,0,0,0,0,0C1137.5,1080.1,1099.9,1118.6,1053.4,1118.6C1053.4,1118.6,1053.4,1118.6,1053.4,1118.6L1053.4,1118.6z"/>
	<text transform="matrix(1 0 0 1 1016.897 1301.1562)" class="st4 st5">moyo</text>
	<path class="st15" d="M1148.9,1102.2L1148.9,1102.2c3.5,0,6.3-2.9,6.3-6.5v-10.3c0-3.6-2.8-6.5-6.3-6.5l0,0c-3.5,0-6.3,2.9-6.3,6.5
		v10.3C1142.6,1099.3,1145.4,1102.2,1148.9,1102.2z"/>
	<path class="st14" d="M1084.6,1100.5L1084.6,1100.5c3.6,0,6.5-2.9,6.5-6.5v-10.3c0-3.6-2.9-6.5-6.5-6.5l0,0c-3.6,0-6.5,2.9-6.5,6.5
		v10.3C1078.2,1097.6,1081.1,1100.5,1084.6,1100.5z"/>
	<path class="st14" d="M666.5,650.5L666.5,650.5c3.5,0,6.3-2.9,6.3-6.5v-10.3c0-3.6-2.8-6.5-6.3-6.5l0,0c-3.5,0-6.3,2.9-6.3,6.5V644
		C660.2,647.6,663,650.5,666.5,650.5z"/>
	<text transform="matrix(1 0 0 1 1029.8656 427.724)" class="st4 st5">moyo</text>
	<path class="st9" d="M1143.5,364.8c-63.1,0-114.2-49.1-114.2-109.6s51.1-109.6,114.2-109.6c63.1,0,114.2,49.1,114.2,109.6
		c0,0,0,0,0,0C1257.7,315.7,1206.6,364.8,1143.5,364.8C1143.5,364.8,1143.5,364.8,1143.5,364.8L1143.5,364.8z"/>
	<path class="st11" d="M1052,270.3c-46.4,0-84.1-38.4-84.1-85.8c0-47.4,37.6-85.8,84.1-85.8c46.4,0,84.1,38.4,84.1,85.8c0,0,0,0,0,0
		C1136,231.9,1098.4,270.3,1052,270.3C1051.9,270.3,1051.9,270.3,1052,270.3L1052,270.3z"/>
	<path class="st15" d="M1403.9,664.4L1403.9,664.4c3.5,0,6.3-2.9,6.3-6.5v-10.3c0-3.6-2.8-6.5-6.3-6.5l0,0c-3.5,0-6.3,2.9-6.3,6.5
		V658C1397.6,661.5,1400.4,664.4,1403.9,664.4z"/>
	<path class="st8" d="M1599.2,751.6c-63.1,0-114.2-49.1-114.2-109.6c0-60.5,51.1-109.6,114.2-109.6c63.1,0,114.2,49.1,114.2,109.6
		c0,0,0,0,0,0C1713.4,702.5,1662.3,751.6,1599.2,751.6C1599.2,751.6,1599.2,751.6,1599.2,751.6L1599.2,751.6z"/>
	<path class="st9" d="M1495.9,657.1c-40,0-72.4-33-72.4-73.8c0-40.8,32.4-73.8,72.3-73.8c40,0,72.4,33,72.4,73.8c0,0,0,0,0,0
		C1568.3,624,1535.9,657.1,1495.9,657.1C1495.9,657.1,1495.9,657.1,1495.9,657.1L1495.9,657.1z"/>
	<text transform="matrix(1 0 0 1 1471.1533 819.3896)" class="st4 st5">moyo</text>
	<path class="st14" d="M1540,612.7L1540,612.7c3.6,0,6.5-2.9,6.5-6.5V596c0-3.6-2.9-6.5-6.5-6.5h0c-3.6,0-6.5,2.9-6.5,6.5v10.3
		C1533.5,609.8,1536.4,612.7,1540,612.7z"/>
	<path class="st15" d="M1674.5,676.1L1674.5,676.1c3.5,0,6.3-2.9,6.3-6.5v-10.3c0-3.6-2.8-6.5-6.3-6.5l0,0c-3.5,0-6.3,2.9-6.3,6.5
		v10.3C1668.2,673.2,1671.1,676.1,1674.5,676.1z"/>
</g>
<g id="Layer_2">
</g>
</svg>
